<svg xmlns="http://www.w3.org/2000/svg" width="256" height="256" viewBox="0 0 256 256">
  <!-- Sprite sheet 4x4, 64x64 por frame. Placeholder pixel art -->
  <defs>
    <pattern id="grid" width="64" height="64" patternUnits="userSpaceOnUse">
      <rect width="64" height="64" fill="none" stroke="#333" stroke-width="1"/>
    </pattern>
  </defs>
  <rect width="256" height="256" fill="#2d5a27"/>
  <rect width="256" height="256" fill="url(#grid)"/>
  <!-- Silueta ciudadano en cada celda -->
  <g fill="#4ade80" stroke="#166534">
    <rect x="24" y="40" width="16" height="24" rx="2"/>
    <circle cx="32" cy="28" r="8"/>
    <rect x="88" y="40" width="16" height="24" rx="2"/>
    <circle cx="96" cy="28" r="8"/>
    <rect x="152" y="40" width="16" height="24" rx="2"/>
    <circle cx="160" cy="28" r="8"/>
    <rect x="216" y="40" width="16" height="24" rx="2"/>
    <circle cx="224" cy="28" r="8"/>
    <rect x="24" y="104" width="16" height="24" rx="2"/>
    <circle cx="32" cy="92" r="8"/>
    <rect x="88" y="104" width="16" height="24" rx="2"/>
    <circle cx="96" cy="92" r="8"/>
    <rect x="152" y="104" width="16" height="24" rx="2"/>
    <circle cx="160" cy="92" r="8"/>
    <rect x="216" y="104" width="16" height="24" rx="2"/>
    <circle cx="224" cy="92" r="8"/>
    <rect x="24" y="168" width="16" height="24" rx="2"/>
    <circle cx="32" cy="156" r="8"/>
    <rect x="88" y="168" width="16" height="24" rx="2"/>
    <circle cx="96" cy="156" r="8"/>
    <rect x="152" y="168" width="16" height="24" rx="2"/>
    <circle cx="160" cy="156" r="8"/>
    <rect x="216" y="168" width="16" height="24" rx="2"/>
    <circle cx="224" cy="156" r="8"/>
    <rect x="24" y="232" width="16" height="24" rx="2"/>
    <circle cx="32" cy="220" r="8"/>
    <rect x="88" y="232" width="16" height="24" rx="2"/>
    <circle cx="96" cy="220" r="8"/>
    <rect x="152" y="232" width="16" height="24" rx="2"/>
    <circle cx="160" cy="220" r="8"/>
    <rect x="216" y="232" width="16" height="24" rx="2"/>
    <circle cx="224" cy="220" r="8"/>
  </g>
</svg>
